<svg width="648" height="618" viewBox="0 0 648 618" fill="none" xmlns="http://www.w3.org/2000/svg">
<path d="M294.589 318.513C294.589 318.513 131.804 55.8259 248.042 8.95919C364.281 -37.9727 424.714 144.997 336.379 304.434C336.379 304.434 438.666 83.985 550.276 116.837C661.886 149.69 596.759 323.207 368.909 360.752C368.909 360.752 643.241 323.207 647.869 440.471C652.498 557.735 364.216 524.884 331.685 360.752C331.685 360.752 420.021 646.841 234.025 614.055C48.0306 581.202 289.83 342.044 289.83 342.044C289.83 342.044 43.4019 492.162 6.17683 337.351C-31.0482 182.607 136.366 182.607 294.459 318.579L294.589 318.513Z" fill="#5541BA"/>
</svg>
