<svg width="83" height="238" viewBox="0 0 83 238" fill="none" xmlns="http://www.w3.org/2000/svg">
<path d="M39.2867 7.8029C39.1187 10.0989 39.0627 12.3109 39.1187 14.4389V14.5229C35.8707 20.0109 32.3427 25.3869 28.5347 30.6509C24.7267 35.9149 21.0587 41.2629 17.5307 46.6949L17.4467 46.7789C19.6867 46.4989 21.5907 46.3029 23.1587 46.1909C24.7827 46.0789 26.3227 46.0229 27.7787 46.0229C29.2907 45.9669 30.8587 45.9389 32.4827 45.9389C34.1627 45.8829 36.2067 45.7989 38.6147 45.6869V45.9389C38.8947 48.0669 38.9787 50.3349 38.8667 52.7429C38.7547 55.1509 38.6147 57.3629 38.4467 59.3789V59.5469C33.1267 59.2669 27.5547 59.0989 21.7307 59.0429C15.9627 58.9869 10.0827 59.1269 4.09069 59.4629C3.75469 58.4549 3.55869 57.4189 3.50269 56.3549C3.44669 55.2349 3.41869 54.1149 3.41869 52.9949C3.41869 51.8189 3.41869 50.6709 3.41869 49.5509C3.47469 48.3749 3.44669 47.1989 3.33469 46.0229C4.56669 43.2789 6.02269 40.5349 7.70269 37.7909C9.38269 35.0469 11.1467 32.3309 12.9947 29.6429C14.8987 26.9549 16.7747 24.3229 18.6227 21.7469C20.5267 19.1709 22.2907 16.7349 23.9147 14.4389C22.6267 14.2709 21.0307 14.1309 19.1267 14.0189C17.2787 13.9069 15.3747 13.8229 13.4147 13.7669C11.4547 13.6549 9.57869 13.5709 7.78669 13.5149C6.05069 13.4029 4.67869 13.3469 3.67069 13.3469C3.33469 12.7869 3.13869 12.0309 3.08269 11.0789C3.02669 10.1269 2.99869 9.11891 2.99869 8.05491C2.99869 6.9909 2.97069 5.9269 2.91469 4.8629C2.91469 3.7429 2.77469 2.7349 2.49469 1.8389V1.7549C2.49469 1.6429 2.43869 1.5309 2.32669 1.4189C8.09469 0.858902 14.0587 0.662903 20.2187 0.830904C26.3787 0.942903 32.6787 1.0269 39.1187 1.08291C39.3987 3.2669 39.4547 5.5069 39.2867 7.8029ZM74.2838 4.5269C75.9078 5.9829 77.0558 7.6909 77.7278 9.65091C78.1198 10.4909 78.3998 11.3589 78.5678 12.2549C78.7918 13.0949 78.9598 13.9629 79.0718 14.8589C79.1838 16.2589 79.2398 17.6589 79.2398 19.0589C79.2958 20.4029 79.2958 21.7749 79.2398 23.1749C79.0718 26.1429 79.0158 29.0269 79.0718 31.8269C79.1278 34.6269 79.0438 37.4829 78.8198 40.3949L78.5678 43.1669C78.4558 45.1269 78.1478 47.1149 77.6438 49.1309C77.1398 51.0909 76.3838 52.8829 75.3758 54.5069C74.4238 55.8509 73.1638 56.9429 71.5958 57.7829C70.0838 58.5669 68.4598 59.1829 66.7238 59.6309C65.1558 60.0789 63.5598 60.3589 61.9358 60.4709C60.3678 60.5829 58.7718 60.5829 57.1478 60.4709C55.9718 60.3589 54.8238 60.1909 53.7038 59.9669C52.6398 59.7989 51.6038 59.4909 50.5958 59.0429C49.6438 58.5949 48.7758 58.0349 47.9918 57.3629C47.2078 56.6349 46.5638 55.7109 46.0598 54.5909C45.2758 53.1909 44.7438 51.7069 44.4638 50.1389C44.2398 48.5149 44.0998 46.8909 44.0438 45.2669C43.8758 40.8989 43.6798 36.5309 43.4558 32.1629C43.2878 27.7389 43.3438 23.3149 43.6238 18.8909C43.6798 16.3709 43.9878 13.8509 44.5478 11.3309C45.1638 8.7549 46.3398 6.4869 48.0758 4.5269C48.6358 3.9669 49.2798 3.4629 50.0078 3.01491C51.8558 2.1189 53.8438 1.4749 55.9718 1.08291C58.1558 0.634905 60.3118 0.466904 62.4398 0.578902C64.6238 0.690904 66.7238 1.0829 68.7398 1.7549C70.8118 2.3709 72.6598 3.2949 74.2838 4.5269ZM68.7398 34.1789V30.1469L68.5718 24.4349C68.5718 24.3789 68.5158 23.8189 68.4038 22.7549C68.3478 21.6349 68.2918 20.5989 68.2358 19.6469C68.1238 18.0789 67.6758 16.6509 66.8918 15.3629C66.1638 14.0749 65.1558 13.1229 63.8678 12.5069C62.7478 12.0589 61.5998 11.9749 60.4238 12.2549C59.2478 12.5349 58.2118 13.0109 57.3158 13.6829C55.3558 15.1949 54.0398 17.1269 53.3678 19.4789C52.9198 21.6069 52.6398 23.8469 52.5278 26.1989C52.4718 28.5509 52.4998 30.9029 52.6118 33.2549C52.8918 35.2149 53.0878 37.2309 53.1998 39.3029C53.3118 41.3189 53.6478 43.2509 54.2078 45.0989C54.7678 46.2189 55.5798 47.0869 56.6438 47.7029C57.7078 48.3189 58.8558 48.6829 60.0878 48.7949C61.3198 48.8509 62.5518 48.6829 63.7838 48.2909C65.0158 47.8429 66.0518 47.1429 66.8918 46.1909C67.3958 45.5189 67.7598 44.9869 67.9838 44.5949C68.2078 44.1469 68.3478 43.6709 68.4038 43.1669C68.4598 42.6629 68.4598 42.0749 68.4038 41.4029C68.4038 40.6749 68.4598 39.7229 68.5718 38.5469C68.6278 37.4269 68.6558 36.4469 68.6558 35.6069C68.7118 34.7669 68.7398 34.2909 68.7398 34.1789ZM34.0885 83.5269C35.7125 84.9829 36.8605 86.6909 37.5325 88.6509C37.9245 89.4909 38.2045 90.3589 38.3725 91.2549C38.5965 92.0949 38.7645 92.9629 38.8765 93.8589C38.9885 95.2589 39.0445 96.6589 39.0445 98.0589C39.1005 99.4029 39.1005 100.775 39.0445 102.175C38.8765 105.143 38.8205 108.027 38.8765 110.827C38.9325 113.627 38.8485 116.483 38.6245 119.395L38.3725 122.167C38.2605 124.127 37.9525 126.115 37.4485 128.131C36.9445 130.091 36.1885 131.883 35.1805 133.507C34.2285 134.851 32.9685 135.943 31.4005 136.783C29.8885 137.567 28.2645 138.183 26.5285 138.631C24.9605 139.079 23.3645 139.359 21.7405 139.471C20.1725 139.583 18.5765 139.583 16.9525 139.471C15.7765 139.359 14.6285 139.191 13.5085 138.967C12.4445 138.799 11.4085 138.491 10.4005 138.043C9.44853 137.595 8.58053 137.035 7.79653 136.363C7.01253 135.635 6.36853 134.711 5.86453 133.591C5.08053 132.191 4.54853 130.707 4.26853 129.139C4.04453 127.515 3.90453 125.891 3.84853 124.267C3.68053 119.899 3.48453 115.531 3.26053 111.163C3.09253 106.739 3.14853 102.315 3.42853 97.8909C3.48453 95.3709 3.79253 92.8509 4.35253 90.3309C4.96853 87.7549 6.14453 85.4869 7.88053 83.5269C8.44053 82.9669 9.08453 82.4629 9.81253 82.0149C11.6605 81.1189 13.6485 80.4749 15.7765 80.0829C17.9605 79.6349 20.1165 79.4669 22.2445 79.5789C24.4285 79.6909 26.5285 80.0829 28.5445 80.7549C30.6165 81.3709 32.4645 82.2949 34.0885 83.5269ZM28.5445 113.179V109.147L28.3765 103.435C28.3765 103.379 28.3205 102.819 28.2085 101.755C28.1525 100.635 28.0965 99.5989 28.0405 98.6469C27.9285 97.0789 27.4805 95.6509 26.6965 94.3629C25.9685 93.0749 24.9605 92.1229 23.6725 91.5069C22.5525 91.0589 21.4045 90.9749 20.2285 91.2549C19.0525 91.5349 18.0165 92.0109 17.1205 92.6829C15.1605 94.1949 13.8445 96.1269 13.1725 98.4789C12.7245 100.607 12.4445 102.847 12.3325 105.199C12.2765 107.551 12.3045 109.903 12.4165 112.255C12.6965 114.215 12.8925 116.231 13.0045 118.303C13.1165 120.319 13.4525 122.251 14.0125 124.099C14.5725 125.219 15.3845 126.087 16.4485 126.703C17.5125 127.319 18.6605 127.683 19.8925 127.795C21.1245 127.851 22.3565 127.683 23.5885 127.291C24.8205 126.843 25.8565 126.143 26.6965 125.191C27.2005 124.519 27.5645 123.987 27.7885 123.595C28.0125 123.147 28.1525 122.671 28.2085 122.167C28.2645 121.663 28.2645 121.075 28.2085 120.403C28.2085 119.675 28.2645 118.723 28.3765 117.547C28.4325 116.427 28.4605 115.447 28.4605 114.607C28.5165 113.767 28.5445 113.291 28.5445 113.179ZM74.694 83.5269C76.318 84.9829 77.466 86.6909 78.138 88.6509C78.53 89.4909 78.81 90.3589 78.978 91.2549C79.202 92.0949 79.37 92.9629 79.482 93.8589C79.594 95.2589 79.65 96.6589 79.65 98.0589C79.706 99.4029 79.706 100.775 79.65 102.175C79.482 105.143 79.426 108.027 79.482 110.827C79.538 113.627 79.454 116.483 79.23 119.395L78.978 122.167C78.866 124.127 78.558 126.115 78.054 128.131C77.55 130.091 76.794 131.883 75.786 133.507C74.834 134.851 73.574 135.943 72.006 136.783C70.494 137.567 68.87 138.183 67.134 138.631C65.566 139.079 63.97 139.359 62.346 139.471C60.778 139.583 59.182 139.583 57.558 139.471C56.382 139.359 55.234 139.191 54.114 138.967C53.05 138.799 52.014 138.491 51.006 138.043C50.054 137.595 49.186 137.035 48.402 136.363C47.618 135.635 46.974 134.711 46.47 133.591C45.686 132.191 45.154 130.707 44.874 129.139C44.65 127.515 44.51 125.891 44.454 124.267C44.286 119.899 44.09 115.531 43.866 111.163C43.698 106.739 43.754 102.315 44.034 97.8909C44.09 95.3709 44.398 92.8509 44.958 90.3309C45.574 87.7549 46.75 85.4869 48.486 83.5269C49.046 82.9669 49.69 82.4629 50.418 82.0149C52.266 81.1189 54.254 80.4749 56.382 80.0829C58.566 79.6349 60.722 79.4669 62.85 79.5789C65.034 79.6909 67.134 80.0829 69.15 80.7549C71.222 81.3709 73.07 82.2949 74.694 83.5269ZM69.15 113.179V109.147L68.982 103.435C68.982 103.379 68.926 102.819 68.814 101.755C68.758 100.635 68.702 99.5989 68.646 98.6469C68.534 97.0789 68.086 95.6509 67.302 94.3629C66.574 93.0749 65.566 92.1229 64.278 91.5069C63.158 91.0589 62.01 90.9749 60.834 91.2549C59.658 91.5349 58.622 92.0109 57.726 92.6829C55.766 94.1949 54.45 96.1269 53.778 98.4789C53.33 100.607 53.05 102.847 52.938 105.199C52.882 107.551 52.91 109.903 53.022 112.255C53.302 114.215 53.498 116.231 53.61 118.303C53.722 120.319 54.058 122.251 54.618 124.099C55.178 125.219 55.99 126.087 57.054 126.703C58.118 127.319 59.266 127.683 60.498 127.795C61.73 127.851 62.962 127.683 64.194 127.291C65.426 126.843 66.462 126.143 67.302 125.191C67.806 124.519 68.17 123.987 68.394 123.595C68.618 123.147 68.758 122.671 68.814 122.167C68.87 121.663 68.87 121.075 68.814 120.403C68.814 119.675 68.87 118.723 68.982 117.547C69.038 116.427 69.066 115.447 69.066 114.607C69.122 113.767 69.15 113.291 69.15 113.179ZM33.3503 162.527C34.9743 163.983 36.1223 165.691 36.7943 167.651C37.1863 168.491 37.4663 169.359 37.6343 170.255C37.8583 171.095 38.0263 171.963 38.1383 172.859C38.2503 174.259 38.3063 175.659 38.3063 177.059C38.3623 178.403 38.3623 179.775 38.3063 181.175C38.1383 184.143 38.0823 187.027 38.1383 189.827C38.1943 192.627 38.1103 195.483 37.8863 198.395L37.6343 201.167C37.5223 203.127 37.2143 205.115 36.7103 207.131C36.2063 209.091 35.4503 210.883 34.4423 212.507C33.4903 213.851 32.2303 214.943 30.6623 215.783C29.1503 216.567 27.5263 217.183 25.7903 217.631C24.2223 218.079 22.6263 218.359 21.0023 218.471C19.4343 218.583 17.8383 218.583 16.2143 218.471C15.0383 218.359 13.8903 218.191 12.7703 217.967C11.7063 217.799 10.6703 217.491 9.66225 217.043C8.71025 216.595 7.84225 216.035 7.05825 215.363C6.27425 214.635 5.63025 213.711 5.12625 212.591C4.34225 211.191 3.81025 209.707 3.53025 208.139C3.30625 206.515 3.16625 204.891 3.11025 203.267C2.94225 198.899 2.74625 194.531 2.52225 190.163C2.35425 185.739 2.41025 181.315 2.69025 176.891C2.74625 174.371 3.05425 171.851 3.61425 169.331C4.23025 166.755 5.40625 164.487 7.14225 162.527C7.70225 161.967 8.34625 161.463 9.07425 161.015C10.9223 160.119 12.9103 159.475 15.0383 159.083C17.2223 158.635 19.3783 158.467 21.5063 158.579C23.6903 158.691 25.7903 159.083 27.8063 159.755C29.8783 160.371 31.7263 161.295 33.3503 162.527ZM27.8063 192.179V188.147L27.6383 182.435C27.6383 182.379 27.5823 181.819 27.4703 180.755C27.4143 179.635 27.3583 178.599 27.3023 177.647C27.1903 176.079 26.7423 174.651 25.9583 173.363C25.2303 172.075 24.2223 171.123 22.9343 170.507C21.8143 170.059 20.6663 169.975 19.4903 170.255C18.3143 170.535 17.2783 171.011 16.3823 171.683C14.4223 173.195 13.1063 175.127 12.4343 177.479C11.9863 179.607 11.7063 181.847 11.5943 184.199C11.5383 186.551 11.5663 188.903 11.6783 191.255C11.9583 193.215 12.1543 195.231 12.2663 197.303C12.3783 199.319 12.7143 201.251 13.2743 203.099C13.8343 204.219 14.6463 205.087 15.7103 205.703C16.7743 206.319 17.9223 206.683 19.1543 206.795C20.3863 206.851 21.6183 206.683 22.8503 206.291C24.0823 205.843 25.1183 205.143 25.9583 204.191C26.4623 203.519 26.8263 202.987 27.0503 202.595C27.2743 202.147 27.4143 201.671 27.4703 201.167C27.5263 200.663 27.5263 200.075 27.4703 199.403C27.4703 198.675 27.5263 197.723 27.6383 196.547C27.6943 195.427 27.7223 194.447 27.7223 193.607C27.7783 192.767 27.8063 192.291 27.8063 192.179ZM79.3317 174.791C79.5557 179.999 79.5277 185.291 79.2477 190.667L78.9957 217.463C78.1557 217.351 77.2317 217.295 76.2237 217.295C75.2157 217.295 74.2077 217.295 73.1997 217.295C72.1917 217.295 71.2117 217.323 70.2597 217.379C69.3637 217.379 68.5797 217.379 67.9077 217.379C67.7957 214.971 67.7117 212.367 67.6557 209.567C67.6557 206.767 67.6277 203.911 67.5717 200.999C67.5717 198.087 67.4877 195.231 67.3197 192.431C67.2077 189.631 67.0117 187.055 66.7317 184.703C66.3397 185.319 65.8917 186.299 65.3877 187.643C64.8837 188.931 64.3797 190.275 63.8757 191.675C63.3717 193.075 62.8957 194.307 62.4477 195.371C61.9997 196.435 61.6637 196.967 61.4397 196.967C61.1597 196.967 60.8237 196.687 60.4317 196.127C60.0957 195.511 59.7317 194.755 59.3397 193.859C59.0037 192.963 58.6397 192.011 58.2477 191.003C57.8557 189.995 57.5197 189.071 57.2397 188.231C56.9597 187.391 56.7077 186.691 56.4837 186.131C56.3157 185.571 56.2317 185.291 56.2317 185.291C55.7837 190.555 55.6157 195.875 55.7277 201.251C55.8957 206.627 56.1477 211.919 56.4837 217.127C54.6917 217.407 52.7317 217.519 50.6037 217.463C48.4757 217.407 46.5157 217.379 44.7237 217.379C44.6117 217.379 44.5277 217.295 44.4717 217.127C44.4157 216.903 44.3597 216.371 44.3037 215.531C44.2477 214.691 44.1917 213.431 44.1357 211.751C44.1357 210.015 44.1357 207.747 44.1357 204.947C44.1357 202.147 44.1357 198.675 44.1357 194.531C44.1917 190.387 44.2197 185.459 44.2197 179.747C44.2757 174.035 44.3317 167.371 44.3877 159.755C45.1157 159.531 45.9557 159.391 46.9077 159.335C47.8597 159.279 48.8397 159.279 49.8477 159.335C50.8557 159.335 51.8637 159.363 52.8717 159.419C53.8797 159.419 54.8597 159.391 55.8117 159.335H55.8957C56.3997 159.895 56.9037 160.763 57.4077 161.939C57.9117 163.059 58.3877 164.263 58.8357 165.551C59.2837 166.839 59.7037 168.071 60.0957 169.247C60.5437 170.423 60.9917 171.347 61.4397 172.019C61.6077 172.187 61.7757 172.271 61.9437 172.271C62.1117 172.327 62.3637 171.795 62.6997 170.675C63.0917 169.555 63.4837 168.267 63.8757 166.811C64.3237 165.299 64.7997 163.815 65.3037 162.359C65.8637 160.903 66.3957 159.839 66.8997 159.167C67.2917 159.223 67.9917 159.223 68.9997 159.167C70.0637 159.111 71.1837 159.055 72.3597 158.999C73.5917 158.943 74.8237 158.915 76.0557 158.915C77.3437 158.859 78.4357 158.831 79.3317 158.831C79.1077 164.207 79.1077 169.527 79.3317 174.791Z" fill="#211509"/>
</svg>
