<svg width="377" height="397" viewBox="0 0 377 397" fill="none" xmlns="http://www.w3.org/2000/svg">
<mask id="mask0_4595_840" style="mask-type:luminance" maskUnits="userSpaceOnUse" x="0" y="0" width="377" height="397">
<path d="M170.61 0.720131L0 261.533L206.357 396.521L376.968 135.708L170.61 0.720131Z" fill="white"/>
</mask>
<g mask="url(#mask0_4595_840)">
<path d="M285.851 274.716C285.851 274.716 170.256 429.243 130.104 333.626C95.1442 250.33 216.845 310.418 210.644 258.392C204.418 206.349 96.923 301.286 76.9087 250.859C47.8461 177.668 154.216 233.9 153.155 198.585C152.128 163.219 54.6328 171.435 93.9864 118.083C137.989 58.4761 169.028 171.597 188.631 149.8C208.277 127.994 152.91 71.695 205.763 57.9639C284.448 37.4808 211.708 228 251.831 203.599C291.955 179.199 221.633 109.846 285.376 97.6229C365.179 82.2961 355.5 173.69 285.825 274.699L285.851 274.716Z" fill="#E1F532"/>
</g>
</svg>
