<svg width="621" height="636" viewBox="0 0 621 636" fill="none" xmlns="http://www.w3.org/2000/svg">
<mask id="mask0_4595_1181" style="mask-type:luminance" maskUnits="userSpaceOnUse" x="56" y="72" width="508" height="493">
<path d="M249.834 564.382L563.984 320.625L371.115 72.0689L56.9646 315.826L249.834 564.382Z" fill="white"/>
</mask>
<g mask="url(#mask0_4595_1181)">
<path d="M224.623 185.987C224.623 185.987 428.257 47.5933 436.978 179.617C444.553 294.62 322.698 171.583 308.568 236.919C294.462 302.285 463.573 232.412 466.771 301.557C471.429 401.921 366.467 289.903 353.078 332.945C339.627 376.034 460.653 406.621 391.018 454.634C313.177 508.261 322.72 358.908 290.018 377.06C257.26 395.204 300.667 486.117 231.205 480.727C127.775 472.752 294.661 273.139 236.123 285.908C177.584 298.676 233.61 411.549 151.636 399.816C48.9998 385.156 98.6383 278.926 224.647 186.018L224.623 185.987Z" fill="#E1F532"/>
</g>
</svg>
