<svg width="311" height="327" viewBox="0 0 311 327" fill="none" xmlns="http://www.w3.org/2000/svg">
<path d="M235.817 226.02C235.817 226.02 140.458 353.494 107.336 274.617C78.4964 205.905 178.892 255.472 173.776 212.554C168.64 169.624 79.9638 247.939 63.4534 206.34C39.4787 145.963 127.227 192.35 126.352 163.219C125.504 134.044 45.0773 140.821 77.5413 96.8108C113.841 47.6395 139.446 140.955 155.617 122.974C171.824 104.987 126.15 58.5442 169.749 47.217C234.66 30.3199 174.654 187.484 207.753 167.355C240.852 147.227 182.841 90.0151 235.425 79.9326C301.257 67.2893 293.273 142.682 235.796 226.006L235.817 226.02Z" fill="#FF6316"/>
</svg>
