<svg width="305" height="321" viewBox="0 0 305 321" fill="none" xmlns="http://www.w3.org/2000/svg">
<path d="M73.3575 98.8105C73.3575 98.8105 166.517 -26.5926 199.278 50.7023C227.802 118.038 129.123 69.7238 134.282 111.823C139.462 153.936 226.225 76.7933 242.563 117.56C266.286 176.732 180.027 131.498 180.982 160.082C181.908 188.709 260.81 181.796 229.096 225.09C193.636 273.462 168.205 181.973 152.395 199.67C136.55 217.375 181.522 262.801 138.774 274.059C75.1324 290.852 133.503 136.428 101.088 156.289C68.6736 176.15 125.787 232.103 74.2187 242.168C9.65892 254.791 17.2478 180.78 73.3787 98.8246L73.3575 98.8105Z" fill="#FF6316"/>
</svg>
