<svg width="18" height="16" viewBox="0 0 18 16" fill="none" xmlns="http://www.w3.org/2000/svg">
<path d="M-0.000101089 8.22029C-0.000101089 8.02137 0.0789165 7.83061 0.219568 7.68996C0.36022 7.5493 0.550987 7.47029 0.749899 7.47029H15.4396L9.96927 2.00091C9.89959 1.93123 9.84431 1.8485 9.8066 1.75746C9.76889 1.66641 9.74948 1.56883 9.74948 1.47029C9.74948 1.37174 9.76889 1.27416 9.8066 1.18311C9.84431 1.09207 9.89959 1.00934 9.96927 0.93966C10.039 0.869977 10.1217 0.814703 10.2127 0.776991C10.3038 0.739279 10.4014 0.719868 10.4999 0.719868C10.5984 0.719868 10.696 0.739279 10.7871 0.776991C10.8781 0.814703 10.9608 0.869977 11.0305 0.93966L17.7805 7.68966C17.8503 7.75932 17.9056 7.84203 17.9433 7.93308C17.9811 8.02413 18.0005 8.12172 18.0005 8.22029C18.0005 8.31885 17.9811 8.41644 17.9433 8.50749C17.9056 8.59854 17.8503 8.68126 17.7805 8.75091L11.0305 15.5009C10.8898 15.6416 10.6989 15.7207 10.4999 15.7207C10.3009 15.7207 10.11 15.6416 9.96927 15.5009C9.82854 15.3602 9.74948 15.1693 9.74948 14.9703C9.74948 14.7713 9.82854 14.5804 9.96927 14.4397L15.4396 8.97029H0.749899C0.550987 8.97029 0.36022 8.89127 0.219568 8.75062C0.0789165 8.60996 -0.000101089 8.4192 -0.000101089 8.22029Z" fill="#5541BA"/>
</svg>
