<svg width="18" height="16" viewBox="0 0 18 16" fill="none" xmlns="http://www.w3.org/2000/svg">
<path d="M18.0001 8.22112C18.0001 8.42003 17.9211 8.6108 17.7804 8.75145C17.6398 8.8921 17.449 8.97112 17.2501 8.97112H2.56041L8.03073 14.4405C8.10041 14.5102 8.15569 14.5929 8.1934 14.6839C8.23111 14.775 8.25052 14.8726 8.25052 14.9711C8.25052 15.0697 8.23111 15.1672 8.1934 15.2583C8.15569 15.3493 8.10041 15.4321 8.03073 15.5017C7.96104 15.5714 7.87832 15.6267 7.78727 15.6644C7.69623 15.7021 7.59865 15.7215 7.5001 15.7215C7.40156 15.7215 7.30397 15.7021 7.21293 15.6644C7.12188 15.6267 7.03916 15.5714 6.96948 15.5017L0.219477 8.75175C0.149744 8.68209 0.0944251 8.59937 0.0566819 8.50833C0.0189387 8.41728 -0.000488281 8.31968 -0.000488281 8.22112C-0.000488281 8.12256 0.0189387 8.02496 0.0566819 7.93392C0.0944251 7.84287 0.149744 7.76015 0.219477 7.69049L6.96948 0.940495C7.11021 0.799765 7.30108 0.720703 7.5001 0.720703C7.69912 0.720703 7.89 0.799765 8.03073 0.940495C8.17146 1.08123 8.25052 1.2721 8.25052 1.47112C8.25052 1.67014 8.17146 1.86101 8.03073 2.00175L2.56041 7.47112H17.2501C17.449 7.47112 17.6398 7.55014 17.7804 7.69079C17.9211 7.83144 18.0001 8.02221 18.0001 8.22112Z" fill="#5541BA"/>
</svg>
